<svg id="Layer_1" data-name="Layer 1" xmlns="http://www.w3.org/2000/svg" viewBox="0 0 529.6 524.8"><defs><style>.cls-1{fill:aqua;}.cls-1,.cls-2,.cls-5{opacity:0.6;}.cls-1,.cls-5{isolation:isolate;}.cls-3{fill:blue;}.cls-4{fill:#f0f;}.cls-5{fill:#008;}</style></defs><path class="cls-1" d="M380.1,275.8c16.5-12.4,27.4-25.7,24.8-27.1-1.5-4.4-14,5.2-29,14.7l-3.6,2.3c-2.8-1-9.3.2-14.5.6l-1.6.2a117.1,117.1,0,0,0,12-29.6c3-6.2,5.5-12.3,7.6-17.7,6-16.1,7.4-26.9,6.3-28.1-.5-5.4-2.3-5.6-4.6-3.7,1.1-13.3-.1-23.8-1.3-22.5s-1.9,5.2-3.1,12.8c-1.3-13.3-3.6-21.8-3.8-19.5-1.3-.5,1.4,15,1.1,34.6-.2,1.2-.5,2.3-.7,3.5l-.9,1c-5.3,7.2-9.4,11.2-16.5,24.3a73.2,73.2,0,0,0-4.1-20.6,72.9,72.9,0,0,0-6-14.1,52.9,52.9,0,0,0-2.4-9.7c-2-5.7-1.7-2.7-1.2,3.8l-2.9-4.2c2.5-19.4.8-35.2-2-34.4-3.5-1.8-5.5,9.2-8.4,23.2a26.8,26.8,0,0,0-3-2.8c-10.2-9.1-27.7-18.3-38.2-20.2-9.9-11.4-18.7-18-19.9-15.9-4.4,1.4,5.2,14,14.7,28.9,3.9,6.1,7.9,12.6,11.4,18.9a153,153,0,0,0-12.7-16.4c-17.4-20.8-39.3-34.3-36.7-31.4-1.4.6,12.6,10.4,26.8,25.5a189.2,189.2,0,0,1,23.8,30.3c-11.4-11-35.4-20-59.5-23.1a141.7,141.7,0,0,0-25-4.9c-15.1-1.7-28.1-.5-26.6.8s5.2,2,12.8,3.2c-13.2,1.3-21.8,3.6-19.5,3.7-.5,1.4,15-1.4,34.6-1l8.6,1.8-6.1.2c-16.5.9-40.6,9.4-45.3,16.5-2.1,5.8,39.3-4.3,64.5.3a78.2,78.2,0,0,0-13.5,3.3,80.1,80.1,0,0,0-14.1,6.1,52.7,52.7,0,0,0-9.7,2.3c-5.7,2.1-2.7,1.8,3.8,1.3a85.4,85.4,0,0,0-18.2,16.3c-11.1,12.3-22.1,35.3-20.4,43.7,1.2,2.4,6.3-3.5,13.4-12,10.1-6.9,29.7-22.3,46.5-28.3,13.9-5.7,25.8-6.8,35.2-5.7a30.5,30.5,0,0,0-9.6,7.6,61.7,61.7,0,0,0-6.1,1.9l-1.2.3a36.5,36.5,0,0,0-15.7,4.5,191.3,191.3,0,0,0-20.6,8.1c-15.6,7.1-24.3,13.7-24.3,15.4-3.9,4.6-2.1,5.9,1.8,5.9l-3.7,3.2c-20.8,17.4-34.3,39.3-31.4,36.8.6,1.4,10.4-12.6,25.5-26.8a180.5,180.5,0,0,1,15.5-13.5l6.1-.6,1.6-.3c-4.8,8-9,18.4-12,29.6a186.6,186.6,0,0,0-7.6,17.8c-6,16-7.5,26.9-6.3,28.1.7,7.9,4.3,4.7,8.4-.2.2,20.4,4.1,36.2,4.3,33,1.4.6-1.6-16.2-.9-37v-.2l1.4-1.8.4-.5a19.3,19.3,0,0,1,.1,2.4c.9,16.6,9.4,40.7,16.5,45.4,5.8,2-4.2-39.3.3-64.5a78.2,78.2,0,0,0,3.3,13.5,81.6,81.6,0,0,0,12.6,24.1c-2.5,19.5-.8,35.3,1.9,34.5,3.5,1.8,5.6-9.3,8.5-23.1l3,2.6c10.2,9.2,27.7,18.4,38.2,20.3,9.9,11.3,18.7,18,19.9,15.9,4.4-1.5-5.3-14.1-14.7-29-.8-1.1-1.6-2.4-2.3-3.6a10.9,10.9,0,0,0,.3-2.6l3.2,3.8c17.5,20.8,39.3,34.2,36.8,31.4,1.4-.7-12.6-10.4-26.8-25.5a180.5,180.5,0,0,1-13.5-15.5c-.2-2.1-.5-4.2-.6-6.1s-.8-5.6-1.1-8.3c15,11.8,33.7,20.9,48.2,26.3,16,6,26.9,7.5,28.1,6.3,5.4-.5,5.6-2.3,3.7-4.7,13.3,1.2,23.8,0,22.5-1.2s-15-3.1-31.4-6.5l-1-.9-.5-.3,2.4-.2c16.6-.8,40.7-9.3,45.4-16.4,2.1-6-41,4.6-66-.6a104,104,0,0,1-12.6-2.5h-.3c-8.1-4-19.5-9.7-29.9-16.5a51.2,51.2,0,0,1-2.5-6.5c-.3-1.2-.5-2.2-.7-3.3a48.4,48.4,0,0,0,16.5,8.3l2.1,1.9c6.9,6.4,20.3,10.6,34.4,11s28.4-2.4,31.8-3.8c10.6-3.7-8.9.3-24.4-.4-12.2-.4-21.6-3.2-28.1-6.7a72.4,72.4,0,0,0,21.2-3.5l2-.5.7.2c29.7,10.6,64.5,8.8,63.4,4.8,2.1-4.1-13.7-6.2-30.9-10.1-4.8-1-9.6-2.1-14.3-3.3a166.6,166.6,0,0,0,19.9-13.6A124.9,124.9,0,0,0,380.1,275.8Z" transform="translate(-8.7 4.4)"/><g class="cls-2"><path class="cls-3" d="M183,465.3C189.2,484.9,192.7,491,183,465.3Z" transform="translate(-8.7 4.4)"/><path class="cls-3" d="M317.5,221.1h.1C317.4,220.2,317.4,220.2,317.5,221.1Z" transform="translate(-8.7 4.4)"/><path class="cls-3" d="M264.4,516.3l3.4,4.1Z" transform="translate(-8.7 4.4)"/><path class="cls-3" d="M264.4,516.3c-7.6-9.3-14.6-18.2-20.9-26.7C249.8,498.1,256.7,507,264.4,516.3Z" transform="translate(-8.7 4.4)"/><path class="cls-3" d="M202.2,170.4c-23.2,5.8-52.9,19.5-89.8,55.1C150.1,191.6,179.2,176.5,202.2,170.4Z" transform="translate(-8.7 4.4)"/><path class="cls-3" d="M186.6,253a80.1,80.1,0,0,0-8.9,18.7A152,152,0,0,1,186.6,253Z" transform="translate(-8.7 4.4)"/><path class="cls-3" d="M168.7,310.3a195.8,195.8,0,0,0,1.7,54.6c-1.4-9.2-2.1-17.4-2.5-24.8A247.7,247.7,0,0,1,168.7,310.3Z" transform="translate(-8.7 4.4)"/><path class="cls-3" d="M169.1,307.2a4.9,4.9,0,0,1,.1-1.2h0A4.9,4.9,0,0,0,169.1,307.2Z" transform="translate(-8.7 4.4)"/><path class="cls-3" d="M169.2,306c2.8-14.1,5.5-25.3,8.5-34.3-.8,2.2-1.6,4.4-2.4,6.8A131.5,131.5,0,0,0,169.2,306Z" transform="translate(-8.7 4.4)"/><path class="cls-3" d="M170.4,364.9c4.1,27.5,14.2,64.3,41.4,119.5C186.5,430.2,175.1,392.7,170.4,364.9Z" transform="translate(-8.7 4.4)"/><path class="cls-3" d="M290.5,324.4h.1C291.4,324.6,291.4,324.6,290.5,324.4Z" transform="translate(-8.7 4.4)"/><path class="cls-3" d="M371.1,249.9a153,153,0,0,1-9.1,16.4l2.5-3.9A93,93,0,0,0,371.1,249.9Z" transform="translate(-8.7 4.4)"/><path class="cls-3" d="M381.6,211.9c-.5,4.2-1.2,8.1-2,11.8a140.7,140.7,0,0,1-8.5,26.2l.9-1.8A129.1,129.1,0,0,0,381.6,211.9Z" transform="translate(-8.7 4.4)"/><path class="cls-3" d="M377.6,143.8c5.5,30,6,51.6,4,68.1C383.8,195.5,384,174.4,377.6,143.8Z" transform="translate(-8.7 4.4)"/><path class="cls-3" d="M362,266.3a97.5,97.5,0,0,1-14.1,16.6A77.5,77.5,0,0,0,362,266.3Z" transform="translate(-8.7 4.4)"/><path class="cls-3" d="M134.8,344.2c-.7,29.4,1.3,68.8,29.1,144.9-33.1-94.2-30.6-135.2-27.4-165.7,2.8-17,5.8-30.3,9.5-41.2l-.2.4C140.3,297,136.3,315.6,134.8,344.2Z" transform="translate(-8.7 4.4)"/><path class="cls-3" d="M175.6,315.6c.7,11.5,3,25.2,8.2,42.1,11.4,33.3,34.3,79.2,101.3,139.5C189.3,403.1,180.5,350,177.5,315c.3-34.7,6.4-51.2,15.2-65.1,11.4-16.8,21.4-25.1,30.4-30.1-12.5,10.9-24.1,28-30.4,50-10,35.5-4.4,67.4-5.7,48.2.2.6-.4-28.3,7.5-50.6s19.3-39.8,33.1-49.9c2.9-1.3,5.7-2.4,8.4-3.4a99.5,99.5,0,0,1,11.1-2.5,47,47,0,0,1,20,3.2l.8.3a54.8,54.8,0,0,0-8.1.2c-1.5-.3-3-.4-4.7-.6l3.3.8a44.2,44.2,0,0,0-8.1,2.3c-9.6,1.4-20.6,6.2-32.5,18.2-9.7,12.3-24,29.6-22.5,70.8,1.8,20.4,7,47.9,29.1,81.7S284.3,461.4,340.7,493c-9.1-7-17.3-13.8-24.8-20.2-49.3-32.7-78.6-67.4-95.4-95.8s-21.3-51.4-23-68.8c-1.9-34.7,7.9-50.4,14.7-62,11.9-16.2,21.8-21.1,29.5-23.7a90.6,90.6,0,0,0-13.9,12.3c-1.4,2-3,4.3-4.6,6.9-5.2,6.1-10.1,14.5-13.6,26.2-4.5,16.4-7.1,43.3,8.5,76,9.9,27.7,32.3,59,59,82.8,29.7,27.6,64.9,45.5,79,50.8s.6,1.4-34.4-19.8c-30.9-18.1-73.1-55.7-93.4-95.6a197.3,197.3,0,0,0,16,21.3A211.7,211.7,0,0,1,225.8,357c-1.3-3-2.6-5.9-3.7-8.9-18.1-45.1-11-74.9-4.2-92.9a81.9,81.9,0,0,1,8.7-15.9c11.2-11.4,20.4-13.1,26.8-14.6a64.7,64.7,0,0,1,8.8-.2h-.3a79.2,79.2,0,0,0-11,3.8h-.3c-7.9,3.6-20.7,8.6-29.2,28.7-.8,1.7-1.5,3.4-2.2,5.2a67.1,67.1,0,0,0-2.7,10.7c-.4,1.7-.7,3.4-1.1,5.2l.9-3.8c-1.8,11-1.3,26.2,7.1,47.5,6.3,15.5,18.4,33.3,44.7,53.1,12.8,10.5,32.1,18.9,60,27.3,29.8,7.3,68.3,14.7,162.2-4.1l-8.7-2.9c-100.7,18.7-139.1,8.4-168.6-.9-27.3-10.7-45.8-20.4-57-32.2-23.1-22-32-39.9-35.5-54.9-6.6-29.1-.4-44.8,5.8-55.4l1.9-2.7c-.6,1-1.2,2-1.8,3.2a48.3,48.3,0,0,0-3.5,8.1.8.8,0,0,0-.1.4h0l-.9,2.5c-.3,1.3-.6,2.6-.8,3.9a81.5,81.5,0,0,0-1.4,22c.9,10.9,4.4,24.3,15.2,41.2,12.8,15.8,26.3,38.1,85.5,54-35.9-9.7-54.2-22.3-67.1-33.6a96.7,96.7,0,0,1-24.5-32c-6.7-14.8-8.9-26.1-9-35.3a66.8,66.8,0,0,0,6.8,25.9,49.8,49.8,0,0,0,4.6,11.2c1.9,3.7-.2-.1-2.8-7.5a96.4,96.4,0,0,0,10,15.1c11.1,12.4,28.4,29.1,63.4,38,17.8,4.5,40.5,7.5,73.6,2.8s77.2-18,142.3-57.4C455,348,413.9,360.5,382.8,366.3s-51.5,4.1-67.9,1.5c-26.6-4.2-42-12.8-53.6-20.8-.8-1.1-1.7-2.3-2.4-3.4-31.2-27.4-33.8-50.1-33.6-66.1a46.5,46.5,0,0,1,15.1-34.2c7.6-7.1,12.2-7.2,16.4-7.5a55.5,55.5,0,0,0-5.6,2.4h-.1c-5.9,4.1-14.2,9.4-18.3,28.2a56.9,56.9,0,0,0,3.4,30.6c2.5,7.3,7.1,15.6,15.2,25.1,11.6,10.1,27,26.5,67.9,26.2,15.7-1.4,35.9-4.3,60.9-17.9,31.8-15.3,72.5-44.8,117-106.2-9.7,10.7-18.7,20-27.2,28.2A463.1,463.1,0,0,1,433.8,289c27.3-27.5,56.3-66.9,80.6-119.9-20.5,44.1-45.9,81.8-70.3,108.8-4.2,4.7-8.4,9-12.6,13.1-42.2,37.3-73.4,46.9-96.3,51.2-29.5,3.8-45.5-1-58.6-6.6-24.3-12.1-31.3-24.6-36.9-35.1-8.8-20.8-5.6-32-2.8-41.1,2.7-6.2,5.4-10.3,8-13.1h.3a27.3,27.3,0,0,1,10.3-6.3h.2l-1.4,1a31.2,31.2,0,0,0-11.7,15.1l-1.3,2.3c-1.6,4.8-3.8,10.8-3.4,19.3-.3,4.5-.1,8.5.7,11.1,2.3,13.3,6.8,20.6,6.4,19.8a72.7,72.7,0,0,1-5.6-20,13.6,13.6,0,0,1-.2-2.1,57.4,57.4,0,0,0,3.9,11.7c5.4,9.8,13,22.4,35.4,32.5,11.6,4.6,26.5,8.4,49.6,5.3s54.4-14.5,95.1-53.9c-60.9,55.6-97.5,56.9-121.5,54.7-23.9-4.2-35.3-11.9-43.8-19.5-15.8-15.4-17.4-27.4-18.9-35.8-.1-1.3-.1-2.6-.1-3.7a50.6,50.6,0,0,1,.6-5.3c-.1,15.8,6.8,46,47.6,59.1,22.1,6.9,55.4,1.6,87.2-22.6,31.5-22.5,61.5-63.9,73.7-90.9,28.8-59.7,27.4-71.8,23.5-57.1-3.2,5-8.8,26.7-32.1,69-11.3,19.9-28.6,44.8-49.1,63.9s-44.1,33.1-65.5,37.3a88.5,88.5,0,0,1-20.5,1.9,103,103,0,0,0,28.6-4.6c17.8-5.5,38.2-19.2,56.6-39.3s34.9-46,45.8-69c22.9-48.1,26.1-76.3,23.2-67.9,4.9-37.9,6.2-11.7-28.1,65.8-12.2,26.4-31.3,55.2-51.9,75.8-24.1,23.4-46,30.9-62.9,33.3-23.3,2.5-37.6-4.5-47.4-10.5s-14.1-12.6-17.4-18.5a46.1,46.1,0,0,1-3.3-9,48.4,48.4,0,0,0,3.6,7.2q2,2.9,4.5,6a44.3,44.3,0,0,0,4.3,5.4c10.1,13.1,31.6,17.4,30.7,16.7-3.3-.6-20.7-4.9-29.8-16.3-.9-.9-1.7-1.9-2.5-2.8,10.8,11.2,30,22.3,63.8,12.7,20.5-6.8,47.7-25.7,69-67,20.8-39.4,36.6-106.9,22.4-198.1-9.1-47.9,2.2,3.2,3.2,54.3s-8,101.3-22.9,132.5c-30.5,67.5-75.9,82.7-99.6,79.9s-34.5-13.4-41.1-23.4l1.4,1.6c5.5,5.7,13.7,11.9,28.6,15.4,15,1.1,37.8,7.4,76-30.2-42.5,40-64.7,30-78.8,28.7-13.9-4.1-21-10-25.7-15.4,7.6,6.9,17.5,12.3,31.8,13.6,9.9.4,24.5.1,41.8-11,7.5-3.5,15.8-9,24.7-17.8,10-10.6,21.8-24.7,29.8-54.9,4-15.5,6.3-35.2,2.8-65.7-.3-2.3-.7-4.7-1.1-7.2a230.8,230.8,0,0,1,2.7,37.1c-2,31.1-7.1,49.2-14.7,62.6-14.1,26.1-27.7,36.1-39.5,42.9l-.8.4c1.9-1.4,3.9-2.9,5.8-4.5s3.2-2.9,4.8-4.5,3.5-2.9,5.2-4.5l-1.8,1.6-1.9,1.4c9.1-9.2,18.8-22.3,26.6-45.6,4.9-14.8,8.1-33.5,6.4-63.5S367,104.5,326.3,31.6c4.3,10.6,7.9,20.4,11,29.6,40.9,85.7,39.3,124.5,36.6,152.4-4.4,26.7-10,42.4-18,53.8-10.1,15-19.3,23.6-27.8,29.1a61.2,61.2,0,0,1-22.7,7,62.7,62.7,0,0,1-13.7-.2c9-.5,20-4.3,33.4-14.1l.7-.6.8-.6c9.3-8.6,21.1-19.1,29-49.7,3.2-16.2,5.8-36.2-3.4-70.5S319.9,85.8,248.6,23c8.7,9.5,16.3,18.4,23.1,26.6,64.1,65.8,77.4,109.9,82.8,140.4s-.1,47.4-4.9,61.1a.4.4,0,0,0-.1.3c5.6-17.3,8.8-40.6.8-73.3s-33.5-76.7-72.7-111.2S188.6,5.6,157.9-4.4c37.7,14.3,79,38.2,110.5,65.2s54.4,57,66.9,82.4c25.2,52.4,18.4,86.4,12.7,106.8-6.2,16.6-13.4,27.2-20.5,34.3-1.8,1.6-3.7,3.1-5.6,4.5l-3.5,2.5c-18.9,10.4-29.7,8.4-38.6,6.4l-3.6-1.3c7.1,1.8,16.3,3.7,31.2-2.4,7.5-3.3,16.2-8.7,25.5-21.1s20.5-31.2,14.6-75.9c5.6,55.1-11.8,70.6-21.1,83-11.1,10.9-20,14.4-27.5,16.2-14.9,2.8-22.2-.1-28.2-3a30.3,30.3,0,0,1-4.8-3.1,27.3,27.3,0,0,1-5.4-6.3,41.1,41.1,0,0,1-2.8-6,28.5,28.5,0,0,0,4.3,6c.8,1.2,1.7,2.5,2.7,3.8l-2.1-3.1a28.7,28.7,0,0,0,8.8,6.2c3.9,2.9,9.4,4.9,17.5,3.6a37.2,37.2,0,0,0,9.9-1.6c11-3.9,29.2-11.4,39.3-44.7a18.9,18.9,0,0,1-2,2.7c-5.8,15.6-13.2,24.9-20.6,30.8a18,18,0,0,0,3.8-4.4l8.4-13.5c4.3-6.6,8.2-16,10.3-29.9s.5-30.6-12.4-53.8a181.9,181.9,0,0,0-13.5-28.6c-26.4-48.9-92.4-88.5-129.6-100.6C144,36.8,130.7,36,134.2,36.8c-7.6-1,3-.1,40,12.4C209.6,60,279.7,97.5,309.4,149a184.5,184.5,0,0,1,13.2,25.8A141.5,141.5,0,0,0,312,159.7c-13.4-16.4-33.8-34.4-69.3-50.8-17.9-8.2-40.3-15.4-71.1-20.7s-71.2-7.9-142.2,2c110-12.3,158.4,0,195.5,12.8,35.1,13.8,58.9,28.1,73.2,43.3,12.2,12.1,20.6,23.3,26.5,33.4,13.5,36,7.8,61.6,3,77a103.6,103.6,0,0,1-4.7,10.8l-2.3,2.4c-5.9,5.2-10.9,8.2-15,9.9a62.1,62.1,0,0,0,8.7-9.7,73.7,73.7,0,0,0,5.3-10.5c.9-1.4,1.7-2.9,2.6-4.6l-2.2,3.6c5-12.7,7.8-31.9-3.3-60-7.9-18.2-24.9-41.6-58.1-57.1-15.7-7.8-37.6-12.7-58.7-13.4s-40.6,2.3-40.9,3c-36.5,6.7-66.8,18.8-78.7,23.5s-6.6,2.9,12.3-4.1,46.9-14.8,73-17.9,50.2-1.5,68.3,3.6c37.2,9.8,58,28.6,70.4,45.4a93.3,93.3,0,0,1,17.5,45.2c.2,18.3-3,30.8-7.6,39.4a35.9,35.9,0,0,1-6.2,5.5,51.3,51.3,0,0,0,9.2-19.1c4.4-13.6.4-33.1.4-31.6.6,3.2,3.1,18.9-.5,30.6a50.8,50.8,0,0,1-10.4,20.9,7,7,0,0,1-1.7.9,48.7,48.7,0,0,0,5.5-6.4,32.3,32.3,0,0,1-7.1,7.2l-2.5,1a36.5,36.5,0,0,0,8.8-10.3c4.7-6.7,8.2-16,9-28.9s-2.2-30.2-20.4-51c-9.6-10.3-22.6-22.1-50.1-30.9-14.1-4.5-32.1-7.3-59.9-5.4s-66.5,10.3-131.6,46c7.3-2.4,14.2-4.6,20.8-6.5,54.8-27.1,89.1-34.3,114.8-36.7s42,1.1,55,4.6c25.7,7,37.4,18.3,46.8,26.8,16.4,18.7,21.2,31.5,22.3,42.9a77.1,77.1,0,0,1-.4,18.6c.1-.8.1-1.5.2-2.2-.3-11.8.4-29.1-20.7-52.4-9-7.9-20.3-18.4-42.5-23.4-2.6-.7-5.4-1.3-8.3-1.8a93.2,93.2,0,0,0-27.4-.2,142.6,142.6,0,0,0-33.6,7.7c-15.7,4.3-34.4,11.7-57.5,24.8a370.9,370.9,0,0,1,46.6-20.3A198.3,198.3,0,0,0,149.6,189c-34,21.4-77,61.1-116.9,131.3,59.1-97.4,111.5-131.5,148.6-146.4l6.3-1.8a161.6,161.6,0,0,0-18.9,8.7c-29.8,15.4-62.8,44.6-77.7,64.7s4.8-8.6,39.1-36.5c16.8-13.8,36.3-26.7,54.4-34.1a136.5,136.5,0,0,1,17.7-6,143.2,143.2,0,0,1,18.5-1.9,128.2,128.2,0,0,0-18.5,3.4c3.6-1,7.1-1.7,10.4-2.3s6.5-.8,9.5-1.1a120.6,120.6,0,0,1,28.1,3.3c20.9,6.6,32.3,12.9,40.2,21.5,13.1,14.1,17.7,24.5,19.4,33.7a76.3,76.3,0,0,0-6.8-16.2c-5.6-8.7-13.6-19.1-32.7-28.5-9.8-4.5-22.4-8.3-41.5-8.3s-44.9,4.7-83.2,28.4c42.2-25.5,68.8-28.3,88.2-27.9s31.2,5.4,40.5,10.4c17.9,10.3,24.8,20.4,29.6,29,5.4,10.9,6.8,18.9,6.8,25.2v2.2q-.1-2.4-.6-5.4c-.2-.8-.5-1.6-.8-2.5-1.6-8.2-5.4-17.2-13.3-26.7-12-12.1-33.3-32.2-83.9-22.2-24.4,5.1-58.5,23.3-89.6,59.3S63.1,329.5,49.8,372c4.7-8.7,9.2-17,13.8-24.8C89,282.1,133.7,226,170.4,204.2c37.3-23.7,65.3-23.5,83.7-20.2,27.2,6.6,39.5,19.5,46.1,31.3a38.3,38.3,0,0,0-2.8-2.9,80.7,80.7,0,0,0-12-14.1,123.5,123.5,0,0,1,11.5,13.6,75.1,75.1,0,0,0-10.7-7.8c-2-1.6-4.3-3.2-6.7-4.8l-4.1-2.3,2,1.1c-11.3-5.7-27.7-11.1-52.5-5.9l5.4.4c20.1-2.1,33.8,1.2,43.6,6.1-10.1-3.3-23.9-5.5-43.6-.9-13.5,3.7-30.5,9.5-51.7,30.6a139,139,0,0,0-25.4,36.8l1.5-2.6c14.6-26.5,27.9-39,40.2-47.7,24.1-16.4,40.4-18.3,53.2-19a66.8,66.8,0,0,1,30.1,5.3,75.3,75.3,0,0,1,13.4,11.1,58.8,58.8,0,0,1,7.8,12,51.1,51.1,0,0,0-5.7-5.7,38.4,38.4,0,0,0-4.6-4.4,44.7,44.7,0,0,0-22.5-9.5c-9.6-3-22.4-3.5-38.8,3.8-10.5,3.7-22.3,11-35.9,24.3-10.7,9.5-19.1,25.2-28.7,49.4-8.2,26-17.5,60.7,2.3,150.6.2-4.5.4-9,.6-13.3-11.9-54-10.3-84.2-7.1-107s8.8-37.3,14.7-48.8c10.6-21.1,21.3-32,30.7-39.6-15.9,14.9-33.7,40.6-41.1,88.2-4.8,25.9-2.6,65,4.8,100s18.3,63.9,13.7,49.9l1.2,3.1c-1.8-5.5-3.7-12-5.7-19.2-9.6-34.3-18.7-83.3-14.9-114.2,4.7-67,29.8-96.8,48.2-112.1,2.5-1.8,4.9-3.4,7.3-4.8a63.1,63.1,0,0,1,27.1-8c-9.4,1.5-21.2,5.2-37,19.7l-1.1,1.2-3,2.8-3.2,3.7A101.2,101.2,0,0,0,186.6,253l2.1-2.7c1.5-2.2,2.9-4.2,4.4-6-6.3,9.2-12.3,21.8-16.1,42.1-.7,5-1.3,10.3-1.6,16.2-1.2,13.8-.7,30.9,3.5,54.1,6.7,30.9,19.9,72.6,64.6,132.9-37.4-50.6-52-88.1-60.1-116.9C177.1,348.5,175.4,330.3,175.6,315.6Z" transform="translate(-8.7 4.4)"/><path class="cls-3" d="M384.4,153.4c-.3-2.3-.8-4.6-1.2-6.9Z" transform="translate(-8.7 4.4)"/><path class="cls-3" d="M383.2,146.5C377.6,117,365,77.9,329.8,18.8,363.5,77.4,377.5,117.1,383.2,146.5Z" transform="translate(-8.7 4.4)"/><path class="cls-3" d="M153.2,265.2a109.7,109.7,0,0,0-7.2,17C148.4,275.9,150.8,270.3,153.2,265.2Z" transform="translate(-8.7 4.4)"/></g><g class="cls-2"><path class="cls-4" d="M68.5,167.3c-19.6,6.3-25.6,9.8,0,0Z" transform="translate(-8.7 4.4)"/><path class="cls-4" d="M17.6,248.8l26.6-20.9C35.7,234.2,26.8,241.1,17.6,248.8Z" transform="translate(-8.7 4.4)"/><path class="cls-4" d="M262.1,162.1a139.3,139.3,0,0,1,18.7,8.9A76.4,76.4,0,0,0,262.1,162.1Z" transform="translate(-8.7 4.4)"/><path class="cls-4" d="M223.6,153.1a189.3,189.3,0,0,0-54.7,1.7c9.2-1.4,17.4-2.1,24.9-2.5A246.6,246.6,0,0,1,223.6,153.1Z" transform="translate(-8.7 4.4)"/><polygon class="cls-4" points="218 157.8 219 157.9 219.1 157.9 219.1 157.9 218 157.8"/><path class="cls-4" d="M255.4,159.7a129.6,129.6,0,0,0-27.6-6.1c14.1,2.8,25.3,5.5,34.3,8.5Z" transform="translate(-8.7 4.4)"/><path class="cls-4" d="M168.9,154.8c-27.5,4.1-64.2,14.2-119.5,41.4C103.7,170.9,141.2,159.5,168.9,154.8Z" transform="translate(-8.7 4.4)"/><path class="cls-4" d="M210.4,120.9c17,2.8,30.4,5.8,41.2,9.5l-.3-.2c-14.4-5.5-33.1-9.5-61.7-11.1s-68.8,1.4-144.8,29.2C138.9,115.2,179.9,117.7,210.4,120.9Z" transform="translate(-8.7 4.4)"/><path class="cls-4" d="M255.6,199.8l3.6.7h.3Z" transform="translate(-8.7 4.4)"/><path class="cls-4" d="M251.6,130.4c6.3,2.3,12,4.8,17,7.2A94.3,94.3,0,0,0,251.6,130.4Z" transform="translate(-8.7 4.4)"/><path class="cls-4" d="M478,374.8c20.2-3.9,26.6-6.7,0,0Z" transform="translate(-8.7 4.4)"/><path class="cls-4" d="M538.4,300l-25.7,15.6c-7.9,4.5-15.5,8.6-22.7,12.5-44.7,22.9-77.9,31-104,35.1l-8.1,1c3.9-.7,8-1.4,12.2-2.3-6,1.1-11.6,2-16.9,2.7-18.4,1.6-32.8,1-44.8-.6,11.6.7,25.4.1,42.8-3.1l7.4-1.6c28.3-4.6,66.6-16.8,123.7-48.6-10.7,4.2-20.5,7.9-29.6,11-14.2,6.8-27.2,12.4-39,17,25-12.6,54.1-31.8,88.3-61.5-46.4,37-82.9,58.1-112.1,70-44.2,14.3-69.7,13-89.7,11.1-25.1-4.3-40.6-9.4-51.8-16.7l-3.1-2.5c-15.2-13.3-22.3-24.2-26.3-33.8,9.5,13.7,24.9,27.4,46.1,36.2C319,355.7,351.5,354,332.2,353c.6-.2-28.2-3-49.4-13.6s-37.1-23.9-45.4-38.8c-.7-2.1-1.3-4.1-1.8-6.1a97.3,97.3,0,0,0,9,15l.7.7.6.8c8.5,9.3,19.1,21.1,49.7,29a154.8,154.8,0,0,0,20.4,2.8l6.2.6c20.4.7,48.2-1.2,84.6-19.1s79.5-50.6,117.7-102.8c-8,8.2-15.8,15.5-23.1,22.2-38.3,45-76.3,70-106.6,83.1A183.7,183.7,0,0,1,361,337.9l5.1-1.3c34.3-9.2,81.9-32.3,144.7-103.6-9.4,8.7-18.3,16.3-26.6,23-65.7,64.2-109.9,77.5-140.3,82.9a163.5,163.5,0,0,1-31.7,1.3l-8-1.4c14,1.6,30.9,1.1,51.5-4,32.7-8,76.7-33.5,111.3-72.7l1.7-1.9C490.3,238,505.4,215,511,204.3s2.6-3.2-15.3,20.6c20.4-30,35.6-61,42.5-82.5-13.4,35.8-35.7,74.8-61,105.6-23.2,26.2-59.9,56-96.2,69.3A202,202,0,0,0,404,304a233.2,233.2,0,0,1-28.3,15.2c-3.2,1-6.3,1.8-9.4,2.6-47,12.5-75.7,1.9-92.6-7.1a73.4,73.4,0,0,1-10.9-7.2l7.4,4.6c6.7,4.4,16,8.3,29.9,10.4,10.1,1.5,21.6,1.1,35.9-4.1l4.5-1.1a102.1,102.1,0,0,0,31.7-15.1c3.5-1.8,7-3.6,10.3-5.6,48.9-26.5,88.6-92.4,100.7-129.6,13.8-38.5,14.7-51.9,13.8-48.3,1-7.6.2,3-12.4,40-10.8,35.4-48.2,105.5-99.7,135.2-2.2,1.4-4.5,2.7-6.8,4a175.7,175.7,0,0,0,20.4-18.6c12-11.4,22.7-29.6,34.5-56.2,9.2-24.5,19.2-55.1,17.4-122.8.1-22.9-1.7-50.8-6.7-86.4,2,17.8,3.3,33.9,4.1,48.7l-3.4,7.3c2.3,36.9,1.9,65.3-.2,87.8a297.6,297.6,0,0,1-13.4,51.7c-13.8,35.1-28.1,58.9-43.2,73.2-12.2,12.2-23.3,20.6-33.5,26.5-29.3,11-51.7,9.3-67.2,5.6a57.4,57.4,0,0,1-15.5-8.7l-2.6-2.2,3,2.2a45.1,45.1,0,0,0,7.7,4.4h.4l2.3,1.1,3.9,1.2a82.6,82.6,0,0,0,21.5,4.1c11.1.4,24.7-1.5,42.9-10.2,17.2-10.7,41-21.5,63.9-78.2-14,34.3-28.8,51.1-41.6,62.4a96.9,96.9,0,0,1-34.6,20.5c-15.6,4.9-27.1,5.7-36.2,4.7a68.5,68.5,0,0,0,26.6-3.5,51.6,51.6,0,0,0,11.6-3.4l1.3-.4c-1,.3-4.3,1.3-9,2.3a98,98,0,0,0,16.2-8.1c13.6-9.5,32.2-24.7,45.4-58.3a172.2,172.2,0,0,0,11-49.1c.3-3.8.6-7.5.7-11.2a213.4,213.4,0,0,0-.8-26.2c-2.5-32-12-74.2-39.1-134.4,17.9,42,27.5,74.3,32.7,100.3a444.9,444.9,0,0,0-19.3-59.3c-4.6-11.9-3-6.6,4,12.3s14.9,46.9,18,73,1.5,50.2-3.6,68.3c-9.8,37.2-28.7,58-45.4,70.3a93.6,93.6,0,0,1-45.2,17.6c-12.9.1-22.8-1.4-30.6-3.9a44,44,0,0,1-5.7-4.6,48.3,48.3,0,0,0,10.4,3.9c8,2.5,18,2.2,24.6,1.5a52.8,52.8,0,0,0,11.8-1.9c7.5-1.6,16.3-5,26.6-12,8.7-7.8,21.1-17.2,28.6-38.7a128.7,128.7,0,0,0,7-17.9c4.4-14.1,7.3-32.1,5.4-59.9s-10.3-66.5-46-131.6c2.4,7.3,4.5,14.2,6.4,20.8,27.1,54.8,34.4,89.1,36.8,114.7s-1.1,42.1-4.7,55.1l-.6,2.3c.5-2.9,1-5.8,1.3-9,.6-15.8.1-36.2-10.4-62.7C356.6,129,332.3,85,276.6,33.5c9.5,10.8,17.7,21,24.8,30.5a458.5,458.5,0,0,1,32,40.2c-24-30.4-59.7-63.9-109.3-94.4,41.3,25.6,75.6,55.4,99.6,83,4,4.7,7.9,9.3,11.4,13.9,32,46.4,37.7,78.5,39.2,101.8.3,29.7-6.5,45-13.6,57.4a107.8,107.8,0,0,1-9.9,12.9,120.1,120.1,0,0,1-22.2,15.8,64.4,64.4,0,0,1-10.7,2c7.7-2.8,16.4-7.8,26.1-16.7,7.9-8.9,18.5-20.2,23.5-42.4.7-2.6,1.3-5.4,1.8-8.3a93.2,93.2,0,0,0,.2-27.4,138,138,0,0,0-7.8-33.6c-4.2-15.7-11.7-34.4-24.7-57.5a342.6,342.6,0,0,1,20.3,46.5,183.1,183.1,0,0,0-12.4-23.1c-21.4-34-61.2-77.1-131.3-116.9C311,76.2,345,128.6,360,165.7c.7,2.1,1.3,4.3,1.8,6.3a134.9,134.9,0,0,0-8.8-18.9c-15.3-29.8-44.6-62.8-64.6-77.7s8.6,4.8,36.4,39.1c2.7,3.2,5.4,6.6,7.9,10s2.9,4.3,4.2,6.5a282.8,282.8,0,0,0-28.6-34.2c17.5,19.3,29.9,36.4,38.8,51.5,12.3,22.9,17.7,41.3,19.6,56.3,0,.6.1,1.3.1,1.9a125.9,125.9,0,0,1-3.2,28l-.9,2.9a93.9,93.9,0,0,0-1.7-34.2c-1.6-17.9-8.2-41.2-28-73.2,17.8,29.6,24.6,51.5,26.9,68.6a131,131,0,0,0-14-32.9c-18.5-34.1-56.1-68.9-81.4-84.3-55.8-35.7-68-35.8-53.9-30.2,4.7,3.8,25.6,12,64.8,40.2,18.3,13.6,40.9,33.8,57.5,56.5,14.4,19.6,24.5,41.1,27.9,60.7.1,1.7.1,3.3.1,4.8a33.2,33.2,0,0,0-.6-4.4c-3.1-16.8-12.8-36.5-28-55.6a209.8,209.8,0,0,0-40.8-46.5c-34.6-31.2-87.2-59.4-129.6-72.7,8.6,4.6,16.9,9.2,24.7,13.8,52,20.2,98.2,52.8,125.8,83.7A302.2,302.2,0,0,0,265,94.3c-45-28.5-72.5-35.1-64.6-31.2-36.9-9.4-10.8-7.5,62,35.8,24.7,15.3,51,37.8,69.1,60.7,1.9,2.5,3.7,5,5.3,7.5,16.4,31.2,16,55.1,13,71.4a2.4,2.4,0,0,1-.2.8,91.4,91.4,0,0,0-1.1-20.4c-4.2-21.2-19.7-50.5-58.2-76.6C253.7,116.9,188.7,93.1,96.4,96.2c-48.7,3.3,3.4-1.8,54.4,3.4s99.6,20.1,128.6,38.7c63.5,38.4,73,85.3,67.5,108.5-.7,2.6-1.4,5.1-2.2,7.4-6.6,15.7-15.8,24.3-24.7,29.6.1-.1.3-.2.3-.3a39.1,39.1,0,0,0,5.9-5.1,69.2,69.2,0,0,0,9.3-8.6,92.3,92.3,0,0,1-8,7.3A60.1,60.1,0,0,0,339.1,257c.5-2.3,1.1-4.8,1.7-7.6,3-10.1,4.4-23.1.8-40.1a31.5,31.5,0,0,1-.4,5.3,94.4,94.4,0,0,1,.7,11.5c-1.7-11.5-7.2-25.9-20.6-44.2A130.7,130.7,0,0,0,305.4,163a135.9,135.9,0,0,0-36.8-25.4l2.6,1.5c26.6,14.6,39.1,27.9,47.7,40.1,16.4,24.2,18.3,40.5,19,53.3a64.9,64.9,0,0,1-1.1,16.9c1.2-9.6,1.3-22.7-6.5-38.9a87.2,87.2,0,0,0-14.6-26.6c-9.3-11.2-22-24.6-51-36.2-14.8-5.9-34.1-10.5-64.8-10.7l-7.4.2a209.9,209.9,0,0,1,37.2,1.8c30.6,5.7,48,12.9,60.5,22.1,24.1,17.1,32.5,31.9,37.7,44.4l.3.8a70.3,70.3,0,0,0-3.8-6.3c-1.2-1.7-2.5-3.5-3.9-5.3a62.7,62.7,0,0,0-3.8-5.7,74.4,74.4,0,0,0-14.8-15.9l-3.5-2.9a74.3,74.3,0,0,0-11.7-8.2l-1.5-1.1a134.8,134.8,0,0,0-31.9-13.1l-3-.8-2.3-.6c-16.8-5.1-37.9-10.1-74.5-7.7l12.1-1.2c-4.4.3-9.1.8-13.9,1.4-19,1.3-42,4.7-70.7,11l13.4.6c4.3-1,8.5-1.8,12.5-2.6-12.9,3.5-27.1,8.2-43.1,14.3-13.8,4.1-20.3,6.7-12.2,4l-3.1,1.1,8.6-2.5c-7.9,3.1-16.1,6.6-24.8,10.4,10.2-4.3,19.8-8.2,28.9-11.6l6.5-1.9C122,152.1,171,143,202,146.7h.4c-29.3-.1-70.5,6-137.8,33.5,11.2-2.9,21.3-5.4,30.7-7.4,84.6-28.3,123.6-24.6,150.7-19,37.1,9.9,56.7,27.4,68.1,41.2,1.7,2.5,3.3,4.9,4.8,7.3a64,64,0,0,1,7.6,23.2l-.9-2.3c-2.2-8.3-7-18.3-18.5-30.8l-1.2-1.1-2.8-3-3.7-3.2A91.2,91.2,0,0,0,280.8,171l2.8,2.1c2.1,1.5,4.1,2.9,6,4.4-9.2-6.3-21.9-12.3-42.1-16.1-5-.7-10.4-1.3-16.3-1.6-13.8-1.2-30.9-.7-54,3.5-30.9,6.7-72.7,19.9-133,64.6,50.6-37.4,88.1-52,117-60.2,24.2-6.2,42.3-7.9,57.1-7.7-11.6.7-25.2,3-42.1,8.2-28.7,9.7-66.8,28.2-115.6,76.2-4.5,3.8-9.1,7.7-13.8,11.9l6.5-4.6c-5.4,5.6-11,11.5-16.7,17.8,7.6-7.7,14.8-14.7,21.8-21.3,6.1-4.2,12-8,17.6-11.5,69.6-53.3,114.2-62.9,144.9-65.1,3.8.1,9.5.4,16.1,1.1a168.3,168.3,0,0,0-23.9,1.2c-33.5,4-80.2,24-119.3,58.8s-71.5,81-85.1,110.2c18.7-35.7,47.4-73.8,78-101.8s63.1-47.1,89.8-56.5c39.7-13.5,67.9-11.6,87.9-6.4l2.1.7c22.3,7.9,39.8,19.3,49.8,33.1,1.4,2.9,2.5,5.7,3.5,8.4a36.3,36.3,0,0,1,1.4,5.1c-2.7-6.7-7.2-14.3-16.1-22.9-11.2-10.7-28.6-24.1-73.7-23.6,55.5,1.2,68.8,20.2,79.9,30.9A68.2,68.2,0,0,1,321.9,229c.1.9.3,1.7.4,2.5a46.5,46.5,0,0,1-1.2,13.9,36.8,36.8,0,0,0-.6-6.6c-1.6-7.7-4.6-19-16.4-29.8a76.4,76.4,0,0,0-6.2-6.8c-12.3-9.8-29.7-24-70.9-22.5-20.4,1.8-47.8,7-81.7,29.1S72.4,268.7,40.8,325.1c7-9.1,13.8-17.3,20.3-24.8,32.6-49.3,67.3-78.7,95.8-95.4s51.3-21.3,68.7-23c34.8-1.9,50.5,7.9,62.1,14.7l5.2,4a93.9,93.9,0,0,0-11.9-6.1l2.4,2.3a80.4,80.4,0,0,1,18.4,12.5,69.3,69.3,0,0,1,4.9,6.6l-11.5-9.1c-6.1-5.2-14.9-10.2-28.4-14a66.7,66.7,0,0,0-23.5-2.2c-14.7-.5-32.9,2.2-53.4,11.9-27.7,9.9-59,32.3-82.8,58.9-27.6,29.8-45.5,65-50.8,79.1s-1.4.6,19.9-34.4c18.1-30.9,55.7-73.1,95.5-93.4l-2.7,1.9c-46.6,24.4-87.6,78-102.7,110.6C48,361.7,45.4,374.9,46.8,371.4c-1.9,7.5.1-3,17.1-38.2C77.1,303.4,114,249.4,160,221c-3.2,2.5-6.4,5-9.5,7.7,4.2-3.4,8.4-6.6,12.7-9.6a133.5,133.5,0,0,1,16-8.1,184.3,184.3,0,0,1,27.2-10,158.7,158.7,0,0,0-16.3,8.7c-17.9,11.3-38.2,29.4-58.7,62.7-10.4,16.8-20.1,38.3-29.1,68.1S85.8,410.3,87.1,481.9c1.1-110.7,19.1-157.2,36.3-192.5,17.9-33.2,35-55.1,51.7-67.5,13.6-10.6,25.6-17.6,36.5-22.3,23.1-5.6,41.4-4.4,55.4-1.1a121.9,121.9,0,0,1,11.6,3.8,79.9,79.9,0,0,1,16,8.7,48.1,48.1,0,0,1,11.5,16.3q-2.9-3.5-6-6.6c-2.5-1.8-5-3.5-7.6-5.1a56.5,56.5,0,0,0-15.8-9.8,47.7,47.7,0,0,0-5.2-2.2,64.5,64.5,0,0,0-10.7-2.7l-1.6-.4c-11.1-1.6-26.1-1-47.3,7.3-15.5,6.3-33.3,18.4-53,44.7-10.5,12.8-18.9,32.1-27.4,60-7.3,29.8-14.6,68.2,4.2,162.2,1-2.8,1.9-5.8,2.9-8.8-18.8-100.6-8.4-139,.9-168.5,10.7-27.3,20.4-45.8,32.1-57,22-23.1,39.9-32,54.9-35.5,27.8-6.3,43.2-1,53.8,4.9l-2.7-.9-4.3-1.6h-.4l-2.4-.8-4-.8a80.3,80.3,0,0,0-21.9-1.4c-11,.9-24.3,4.4-41.3,15.2-9.8,7.9-22.1,16.1-33.9,35.4-1.2,1.9-2.5,3.8-3.7,5.8-9.6,14.5-17.2,35.6-20.5,56.5s-2.6,40.6-1.8,41c2.1,37,10.6,68.6,13.7,80.9s2.2,6.9-2.5-12.7-9.1-48.3-9-74.6,4.5-50,11.8-67.4c12.5-31.4,30.4-49.4,46.9-60.2-12.2,11.1-28.1,28.4-36.8,62.1-4.5,17.9-7.5,40.6-2.8,73.7.2.9.3,1.9.5,2.9,2.6,25.1,10.3,58.1,28.9,104.5-1.5-7.6-2.8-14.7-3.9-21.4s-3.5-10.3-5.1-15.2c8.7,20.7,20.6,44.2,37,71.4-20.8-36-33.8-64.8-42.2-88.7-11.1-39-12.9-65.4-12.4-85.8.7-25.7,6.2-41.7,11.3-54.2,10.1-24.6,22.6-34.9,32.2-43.2,20.6-14,33.8-17.3,45.3-16.9a76.2,76.2,0,0,1,18.4,2.5l-2.2-.4c-11.7-1-28.8-3.9-54.4,14.3-8.9,7.9-20.8,17.9-28.5,39.3a83.3,83.3,0,0,0-2.7,8,92.8,92.8,0,0,0-3.5,27.2,136.6,136.6,0,0,0,3.7,34.3c2.2,16.1,7.4,35.6,17.5,60A367.3,367.3,0,0,1,190.1,350a196.9,196.9,0,0,0,9.5,24.5c17.2,36.3,51.5,83.9,116.3,131.8-89.6-70.3-117-126.4-127.5-165-.4-2.2-.7-4.4-1-6.5a134.9,134.9,0,0,0,6.5,19.8c11.6,31.5,36.7,67.7,54.7,84.9s-7.9-5.8-31.4-43.2c-11.8-18.3-22.1-39.2-27.4-58.1a141.5,141.5,0,0,1-3.8-18.3c-.2-3.5-.2-7.1-.1-10.6.4,3.7,1,7.7,1.7,11.8,3.2,23.6,13.4,54.5,43.9,94.8-28.7-40.7-40.3-71-43.8-94.4a143.7,143.7,0,0,0,15.6,43.4c1.8,3.7,3.8,7.6,6.1,11.6l1.5,3.5c-.4-1-.8-2-1.3-3,16.7,29.7,46,65.9,99.9,104.9q-15.9-14.5-28.2-27.3a462.9,462.9,0,0,1-36.7-36.1c27.5,27.3,67,56.3,119.9,80.6-44.1-20.5-81.7-45.9-108.8-70.4-4.6-4.2-9-8.3-13.1-12.5-25.5-28.9-38-52.6-44.7-72.1-6.7-24.5-6-41.6-4-54.9,2.7-19.2,9.2-30.5,15.3-39.1,11.5-15.4,21.7-21.4,30.4-25.1a45.1,45.1,0,0,1,5.3-.9l2-.3a72.4,72.4,0,0,0-11.6,4c-9.9,5.4-22.4,13-32.5,35.4-4.6,11.5-8.5,26.5-5.4,49.6,2.5,18.1,9.9,41.1,31.9,69.8a241.4,241.4,0,0,0,20.1,25.3c30.5,35.1,79.4,69.5,119.9,87.8-8-5.6-15.7-11.2-22.9-16.7-61.7-33.1-112-84.2-129.1-123.1a151.1,151.1,0,0,1-10.6-28.8A131.2,131.2,0,0,0,224.8,359c22.5,31.6,64,61.6,91,73.8,59.7,28.8,71.8,27.4,57.1,23.5-5.1-3.2-26.8-8.8-69.1-32.1-19.8-11.3-44.7-28.6-63.9-49.1-17.1-18.3-29.9-39.1-35.5-58.5-.3-1.7-.5-3.4-.7-5.1.5,2.1,1,4.2,1.6,6.2,5.6,17.8,19.3,38.1,39.4,56.5s46,35,69,45.9c48.1,22.9,76.2,26.1,67.9,23.2,37.8,4.9,11.6,6.1-65.8-28.1-26.4-12.2-55.2-31.4-75.9-51.9-23.4-24.2-30.9-46-33.2-62.9-2.5-23.3,4.4-37.6,10.4-47.4s12.5-14,18.3-17.3a64,64,0,0,0-4.2,4.9l-5.2,3.7c-12.9,10-17.3,31.1-16.6,30.7s-.1.7,0,0h0c.6-3.3,4.9-20.8,16.3-29.9l2.8-2.4c-7.9,7.7-15.8,19.6-16.3,38a89.6,89.6,0,0,0-.2,19.5,31.8,31.8,0,0,1,1-5.2v-1.4a104.2,104.2,0,0,0,2.8,12.9,95.4,95.4,0,0,0,16,28.7,140.6,140.6,0,0,0,10.5,15.3,137.5,137.5,0,0,0,33.5,29.7l-2.4-1.8c-22.1-15.9-33.1-29.4-40.2-41.5,10.9,13.3,26.8,26.8,49.6,38.6,39.4,20.8,106.8,36.6,198.1,22.4,47.9-9.1-3.2,2.2-54.4,3.2s-101.3-8-132.4-22.9c-34.6-15.6-55.5-35.2-67.2-53.8-9.4-21.2-9.2-35.4-8.5-46.8a67.7,67.7,0,0,1,8.8-29.2c1.6-1.9,3.3-3.7,5-5.4-4.5,5.3-8.9,12.9-11.6,24.5-1.2,14.9-7.5,37.8,30.1,76-39.9-42.5-29.9-64.7-28.7-78.8,4.2-13.9,10.1-21,15.4-25.7-6.9,7.6-12.3,17.5-13.5,31.8-.3,7.7-.2,18.2,5.1,30.6,2.7,10.4,8.4,22.3,19.3,36.6,8.1,11.6,22.6,21.8,45.5,34.3,24.9,11.3,58.1,24.7,149.8,15.9l-13.2-2.3c-54.9,5.5-84.7.1-107.1-5.8s-35.9-13.2-46.6-20.4c-19.7-13-29.1-25-35.6-35.2,12.8,17.5,36.3,38.2,82.7,51.3,25,7.9,64.2,10.4,99.7,7.3s65.7-10.5,51.3-7.6l3.2-.7L458.3,378c-35.2,5.4-85,8.6-115.3,1.2-29.7-5.8-51.4-14.8-67.4-24.7a136.5,136.5,0,0,0,32,12.6c15.4,4,35.1,6.3,65.6,2.8l7.3-1.1,6.9-1.2c28.4-5.4,65.9-17.3,121.7-49.8l.3-.2-.3.2.9-.6-.6.4C518.6,312.3,528.3,306.6,538.4,300Z" transform="translate(-8.7 4.4)"/><path class="cls-4" d="M351.8,374.6a247,247,0,0,1-29.5-4.4,188.8,188.8,0,0,0,54.5,4.9A248.8,248.8,0,0,1,351.8,374.6Z" transform="translate(-8.7 4.4)"/><path class="cls-4" d="M376.8,375.1c27.8-.7,65.5-6.4,123.6-26.7C443.5,367,404.9,373.8,376.8,375.1Z" transform="translate(-8.7 4.4)"/><path class="cls-4" d="M331.6,403.8c-16.6-4.9-29.5-9.5-39.8-14.4l.3.2c13.6,7.2,31.7,13.4,59.9,18.5s68.5,6.9,147.2-11.6C401.8,418,361.4,410.6,331.6,403.8Z" transform="translate(-8.7 4.4)"/><path class="cls-4" d="M341.5,308.8Z" transform="translate(-8.7 4.4)"/><path class="cls-4" d="M291.8,389.4c-6-3.1-11.3-6.2-16-9.2A97.6,97.6,0,0,0,291.8,389.4Z" transform="translate(-8.7 4.4)"/></g><path class="cls-5" d="M456.5,267.2c2.5-6.6-16.5,9.6-41.1,24.6s-54.8,29.6-77,32.6c-47,7.5-67.6-9.3-77.3-19.1l-.9-1.3a56.6,56.6,0,0,0,24.1,12.7c13.3,4.5,31.4,6.8,52.6,3.4,30.4-4.1,62.8-21.9,57.3-21.7,1.9-3.4-12.6,3-30.5,7.9a230.9,230.9,0,0,1-23.6,5.4c19.5-8.2,42.5-25,62.3-52.6,27-35.2,41.9-86.7,36.4-80.7-1.4-5.5-9.8,15.8-23.1,39.2s-31.3,49.6-48.7,63.5c-18,15.5-34.2,22.8-47.6,25.7,5-1.7,7.5-3.7,5.5-4.5a20.6,20.6,0,0,0-3.5.2c2.6-.9,5.3-2.1,8-3.3,28.1-11.4,47.5-52.8,39.4-49.5-3.4,3.3-12.1,15.8-23.2,26s-24.1,18.7-34.5,20.9a44.6,44.6,0,0,0,14.3-9.5,55,55,0,0,0,5-3.4c8.4-6.3,14.6-15,14.7-17.6a92.3,92.3,0,0,0,7.7-15.4,165.3,165.3,0,0,0,13.9-43.2c3.3-19.4,2.9-35.6,1.2-33.1-1.9-3.2-3.3,12.7-7.7,31l-1.2,5.2c-.8-11.3-3.7-18.8-5.5-14.4-.6,1.5-1.1,4.7-1.7,8.9a155.5,155.5,0,0,0-2.2-17c-3.8-24.2-18.6-54.8-34.9-78.2S281,70.6,282,74.7c-5.3-1.2,9.5,16.6,23.8,39.6s28.7,51.9,32.5,74.2c9.6,46.8-6.4,70.6-15.9,79.9-2.2,2-4.4,3.7-6.4,5.2a60.9,60.9,0,0,0,5.8-6.6c1.6-2,3.1-4,4.5-6.1,8.7-12.6,15.3-38,9-69.2s-24.1-61.7-23.6-56.1c-4-2.8,3.7,12.7,9.4,31.6a191.1,191.1,0,0,1,8.1,35c-6.4-21.4-25.5-50-59.9-72.9-36.8-25.9-87.8-38.5-81.5-33.3-7.1,1.2,16.6,9.3,42,22.8s53.5,31.9,67.4,49.5c15.5,18.7,22,34.6,24.3,47.5-1.6-5.2-3.5-8.3-4.6-7.4-.8-2-1.7-4.1-2.7-6.2-11.4-28.2-52.9-47.6-49.5-39.5,3.3,3.5,15.8,12.2,26,23.2s18.7,24.2,21,34.5a46.3,46.3,0,0,0-6.5-10.8c-8.1-13.4-20.8-22.7-20.1-18.4a14.3,14.3,0,0,0,1.6,2.4,104.5,104.5,0,0,0-9.1-7c-13.4-9.9-34.6-17.9-53.3-21.7s-34.3-3.7-32.1-2.1c-3.5,1.9,12.4,3.8,30.3,8.7l14.2,4.2c-8.4-.3-15.2.6-18.2,1.9a149,149,0,0,0-16.5,2.1c-23.8,3.6-53.7,17.1-76.7,32.3s-39,31.3-35.1,30.8c-1.7,5.4,16.5-8.8,39.9-22.1s52.3-26.8,74.5-30c32.1-5.6,53.3.2,66.6,7.7-3.6-.9-6.5-1.1-7.8-.7a93.3,93.3,0,0,0-22.9-4.1c-16.8-1.5-39.9,3.1-58.3,10.1s-32,15.7-29,15.8c-1.9,3.3,12.6-3.6,30.5-9.2a206.7,206.7,0,0,1,35.6-8.3c-13.7,4.1-28.9,12.1-45.1,26.3-18.8,15.6-37.6,43.9-49.4,69.9s-16.6,49.1-13.5,46.1c1.6,5.2,9.4-16.7,21.9-40.7s29.9-51.2,47.1-65.8c14-12.7,26.8-20.1,38.1-24.2a92,92,0,0,0-33.2,26.8c-12,15.9-17.8,34.5-12.2,30.4s24.6-35.2,45.4-44.8c20.8-11.6,39.3-10.3,49.8-6.3a27.8,27.8,0,0,1,4,1.6,28.4,28.4,0,0,0-7.5-1.5,47.8,47.8,0,0,0-20.8-.1c-19.9,2.7-39.1,25.1-35.5,26.3-.9,1.2-1.8,2.4-2.7,3.8A118.2,118.2,0,0,0,187.6,281c-12,28.3-13.2,65.2-10.5,60.4,1.9,3.4,3.8-12.4,8.7-30.2,1.6-6,3.4-12,5.5-17.8-.4,7.5.1,13.9,1.1,17.7.9,17,5.1,36.6,14.2,57.4,16.5,41.3,53.2,80.3,50.9,72.5,5.4,1.7-8.7-16.5-21.9-39.9s-26.8-52.2-29.9-74.2c-5.7-33.2.8-54.8,8.6-67.9-1.5,5.2-1.7,9.3-.6,10h.1a96.2,96.2,0,0,0-4.1,21.9c-1.6,16.6,2.3,38.9,8.6,56.9s14.3,31.5,14.6,28.8c3.3,2-3.1-12.6-8-30.6-2-7-3.9-14.6-5.3-22.2,4.7,11.1,12,23.1,22.7,35.7,15.3,18.6,42.2,37.4,67.1,49.4s46.8,17.6,44.3,14.6c5.5-1.4-15.9-9.8-39.4-23.1s-49.6-31.3-63.7-48.8c-13.3-15.5-20.6-29.6-24.2-41.7,1.2,3.1,2.6,5.2,3.5,5.8a92.1,92.1,0,0,0,25.5,30.6c15.1,12.2,34.5,17.9,30.3,12.4s-35-24.7-44.7-45.5c-11.5-20.8-10.2-39.3-6.2-49.8a27.4,27.4,0,0,1,1.5-4,26.5,26.5,0,0,0-1.5,10.4c-1.6,10.6-1.1,26.8,14.2,45.8,8,9.4,19.4,16.8,31.6,21.6a129.1,129.1,0,0,0,18.3,8.1c30.1,10.5,65.3,10.7,60.3,8.3,4.4-2-12.9-3.3-32.1-8l-8.6-2.2c12.8-.5,21.7-3.5,17-5.4a25.4,25.4,0,0,0-5.8-1.3,170,170,0,0,0,56.5-16.3C427.3,302,464.1,264.5,456.5,267.2Z" transform="translate(-8.7 4.4)"/></svg>