<svg id="svg2" xmlns="http://www.w3.org/2000/svg" xmlns:xlink="http://www.w3.org/1999/xlink" viewBox="0 0 2052.2 1688.9"><defs><style>.cls-1{fill:none;}.cls-2{fill:url(#linear-gradient);}.cls-3{clip-path:url(#clip-path);}.cls-4{fill:url(#linear-gradient-2);}.cls-5{fill:url(#linear-gradient-3);}.cls-6{clip-path:url(#clip-path-2);}.cls-7{fill:url(#linear-gradient-4);}.cls-8{fill:url(#linear-gradient-5);}.cls-9{clip-path:url(#clip-path-3);}.cls-10{filter:url(#filter4281);}.cls-11,.cls-15,.cls-17{fill:#fff;}.cls-11{opacity:0.78;}.cls-12{clip-path:url(#clip-path-4);}.cls-13{filter:url(#filter4285);}.cls-14{filter:url(#filter3867);}.cls-15{opacity:0.59;}.cls-16{filter:url(#filter3909);}.cls-18{fill:#c9a700;fill-opacity:0.49;}.cls-19{fill:url(#linear-gradient-6);}.cls-20{fill:url(#linear-gradient-7);}.cls-21{fill:url(#linear-gradient-8);}.cls-22{fill:url(#linear-gradient-9);}.cls-23{fill:url(#linear-gradient-10);}.cls-24{clip-path:url(#clip-path-7);}.cls-25{fill:url(#linear-gradient-11);}</style><linearGradient id="linear-gradient" x1="1136.5" y1="0.15" x2="1136.5" y2="-22.7" gradientTransform="matrix(1, 0, 0, -1, -340, 1532)" gradientUnits="userSpaceOnUse"><stop offset="0" stop-color="#e6e6e8"/><stop offset="1" stop-color="#6e6e6e"/></linearGradient><clipPath id="clip-path" transform="translate(0 88.3)"><path class="cls-1" d="M653.1,1538.3c-.9,10.7,5.5,17.1,48.2,16.3H940v-22.8Z"/></clipPath><linearGradient id="linear-gradient-2" x1="1055.06" y1="17.47" x2="1107.74" y2="17.47" gradientTransform="matrix(1.42, 0, 0, -1, -845.27, 1647.63)" gradientUnits="userSpaceOnUse"><stop offset="0" stop-opacity="0.39"/><stop offset="1" stop-opacity="0"/></linearGradient><linearGradient id="linear-gradient-3" x1="2404.5" y1="0.15" x2="2404.5" y2="-22.7" gradientTransform="translate(3488 1532) rotate(180)" xlink:href="#linear-gradient"/><clipPath id="clip-path-2" transform="translate(0 88.3)"><path class="cls-1" d="M1226.9,1538.3c.9,10.7-5.5,17.1-48.2,16.3H940v-22.8Z"/></clipPath><linearGradient id="linear-gradient-4" x1="1947.93" y1="17.47" x2="2000.62" y2="17.47" gradientTransform="translate(3993.3 1647.6) rotate(180) scale(1.42 1)" xlink:href="#linear-gradient-2"/><linearGradient id="linear-gradient-5" x1="1544.91" y1="228.74" x2="1544.91" y2="-13.29" gradientTransform="matrix(1, 0, 0, -1, -604.91, 1532)" gradientUnits="userSpaceOnUse"><stop offset="0" stop-color="#808185"/><stop offset="0.34" stop-color="#c2c3c7"/><stop offset="0.67" stop-color="#9c9da1"/><stop offset="0.77" stop-color="#7a7b7f"/><stop offset="0.91" stop-color="#a2a3a7"/><stop offset="1" stop-color="#b8b9bd"/></linearGradient><clipPath id="clip-path-3" transform="translate(0 88.3)"><path class="cls-1" d="M940,1247.3l-189.2,5.9c1.5,55.4-3.9,117.8-11.6,174.4-1.6,12-3.2,25.1-6,37.8-3.6,14.6-9.5,23.8-17.8,30.6s-16,9.4-24.4,14.1a210.1,210.1,0,0,0-29.2,18.9,48.7,48.7,0,0,0-8.3,8.1,3.1,3.1,0,0,0-.4,1.5c0,1.7,2.4,2.7,4.6,3.5,6.9,2.3,19.9,3.1,35.6,3.2h493.4c15.6-.1,28.7-.9,35.6-3.2,2.2-.8,4.6-1.8,4.6-3.5a3.1,3.1,0,0,0-.4-1.5,48.7,48.7,0,0,0-8.3-8.1,210.1,210.1,0,0,0-29.2-18.9c-8.4-4.7-17.4-8.4-24.4-14.1s-14.2-16-17.9-30.6c-2.7-12.7-4.3-25.8-6-37.8-7.6-56.6-13-119-11.5-174.4Z"/></clipPath><filter id="filter4281" x="-0.34" y="-0.3" width="1.68" height="1.6" name="filter4281"><feGaussianBlur result="feGaussianBlur4283" stdDeviation="15.69"/></filter><clipPath id="clip-path-4" transform="translate(0 88.3)"><path class="cls-1" d="M940,1247.3l-189.2,5.9c1.5,55.4-3.9,117.8-11.6,174.4-1.6,12-3.2,25.1-6,37.8-3.6,14.6-9.5,23.8-17.8,30.6s-16,9.4-24.4,14.1a210.1,210.1,0,0,0-29.2,18.9,48.7,48.7,0,0,0-8.3,8.1,3.1,3.1,0,0,0-.4,1.5c0,1.7,2.4,2.7,4.6,3.5,6.9,2.3,19.9,3.1,35.6,3.2h493.4c15.6-.1,28.7-.9,35.6-3.2,2.2-.8,4.6-1.8,4.6-3.5a3.1,3.1,0,0,0-.4-1.5,48.7,48.7,0,0,0-8.3-8.1,210.1,210.1,0,0,0-29.2-18.9c-8.4-4.7-17.4-8.4-24.4-14.1s-14.2-16-17.9-30.6c-2.7-12.7-4.3-25.8-6-37.8-7.6-56.6-13-119-11.5-174.4L940,1247.3Z"/></clipPath><filter id="filter4285" x="-0.34" y="-0.3" width="1.68" height="1.6" name="filter4285"><feGaussianBlur result="feGaussianBlur4287" stdDeviation="15.69"/></filter><filter id="filter3867" x="-0.11" y="-0.92" width="1.22" height="2.84" name="filter3867"><feGaussianBlur result="feGaussianBlur3869" stdDeviation="18.42"/></filter><filter id="filter3909" x="-0.35" y="-1.95" width="1.71" height="4.89" name="filter3909"><feGaussianBlur result="feGaussianBlur3911" stdDeviation="74.75"/></filter><linearGradient id="linear-gradient-6" x1="376.03" y1="326.93" x2="2220.57" y2="329.28" gradientTransform="matrix(1, 0, 0, -1, -340, 1532)" gradientUnits="userSpaceOnUse"><stop offset="0" stop-color="#a5a6aa"/><stop offset="1" stop-color="#e1e2e4"/></linearGradient><linearGradient id="linear-gradient-7" x1="1184.39" y1="328.05" x2="1634.07" y2="328.05" gradientTransform="matrix(1, 0, 0, -1, -340, 1532)" gradientUnits="userSpaceOnUse"><stop offset="0" stop-color="gray"/><stop offset="1" stop-color="gray" stop-opacity="0"/></linearGradient><linearGradient id="linear-gradient-8" x1="376.03" y1="329.28" x2="2220.57" y2="331.62" xlink:href="#linear-gradient-6"/><linearGradient id="linear-gradient-9" x1="340" y1="406.37" x2="993.06" y2="406.37" gradientTransform="matrix(1, 0, 0, -1, -340, 1613.72)" gradientUnits="userSpaceOnUse"><stop offset="0" stop-color="#d5d5d7" stop-opacity="0"/><stop offset="0.01" stop-color="#d5d5d7"/><stop offset="1" stop-color="#e6e6e6"/></linearGradient><linearGradient id="linear-gradient-10" x1="1608" y1="406.37" x2="2261.06" y2="406.37" gradientTransform="translate(2914.1 1613.7) rotate(180)" xlink:href="#linear-gradient-9"/><clipPath id="clip-path-7" transform="translate(0 88.3)"><path class="cls-1" d="M62.3,0C18.9,0,0,13.3,0,62.3V1117.8H1880V62.3c0-49-18.9-62.3-62.3-62.3H62.3Z"/></clipPath><linearGradient id="linear-gradient-11" x1="1861.78" y1="1740.59" x2="2307.47" y2="150.79" gradientTransform="matrix(1, 0, 0, -1, -340, 1532)" gradientUnits="userSpaceOnUse"><stop offset="0" stop-color="#fff" stop-opacity="0.2"/><stop offset="1" stop-color="#fff" stop-opacity="0"/></linearGradient></defs><g id="layer2"><g id="layer5"><path id="path3928" class="cls-2" d="M653.1,1538.3c-.9,10.7,5.5,17.1,48.2,16.3H940v-22.8Z" transform="translate(0 88.3)"/><g class="cls-3"><rect id="rect3941" class="cls-4" x="653.1" y="1611.1" width="74.8" height="38.13"/></g></g><g id="layer6"><path id="path3928-8" class="cls-5" d="M1226.9,1538.3c.9,10.7-5.5,17.1-48.2,16.3H940v-22.8Z" transform="translate(0 88.3)"/><g class="cls-6"><rect id="rect3941-5" class="cls-7" x="1152.1" y="1611.1" width="74.8" height="38.13"/></g></g><g id="layer3"><path id="path3002" class="cls-8" d="M940,1247.3l-189.2,5.9c1.5,55.4-3.9,117.8-11.6,174.4-1.6,12-3.2,25.1-6,37.8-3.6,14.6-9.5,23.8-17.8,30.6s-16,9.4-24.4,14.1a210.1,210.1,0,0,0-29.2,18.9,48.7,48.7,0,0,0-8.3,8.1,3.1,3.1,0,0,0-.4,1.5c0,1.7,2.4,2.7,4.6,3.5,6.9,2.3,19.9,3.1,35.6,3.2h493.4c15.6-.1,28.7-.9,35.6-3.2,2.2-.8,4.6-1.8,4.6-3.5a3.1,3.1,0,0,0-.4-1.5,48.7,48.7,0,0,0-8.3-8.1,210.1,210.1,0,0,0-29.2-18.9c-8.4-4.7-17.4-8.4-24.4-14.1s-14.2-16-17.9-30.6c-2.7-12.7-4.3-25.8-6-37.8-7.6-56.6-13-119-11.5-174.4Z" transform="translate(0 88.3)"/></g><g id="layer8"><g class="cls-9"><g id="path4182" class="cls-10"><path class="cls-11" d="M653.1,1476.1c31.3-4.7,52.5,13.5,77.2,23.8-36.8,69.5-73.6,79.7-110.4,100.7l9.5-93.7Z" transform="translate(0 88.3)"/></g></g><g class="cls-12"><g id="path4182-3" class="cls-13"><path class="cls-11" d="M1226.9,1476.1c-31.3-4.7-52.5,13.5-77.2,23.8,36.8,69.5,73.6,79.7,110.4,100.7l-9.5-93.7Z" transform="translate(0 88.3)"/></g></g></g><g id="layer4"><g class="cls-9"><g id="rect3853" class="cls-14"><path class="cls-15" d="M940,1408.2h0c139.7,0,252.9,10.7,252.9,24h0c0,13.2-113.2,23.9-252.9,23.9h0c-139.7,0-252.9-10.7-252.9-23.9h0C687.1,1418.9,800.3,1408.2,940,1408.2Z" transform="translate(0 88.3)"/></g></g></g><g id="g3887"><g class="cls-9"><g id="rect3889" class="cls-16"><path class="cls-17" d="M940,1381.2h0c139.7,0,252.9,20.6,252.9,46.1h0c0,25.5-113.2,46.1-252.9,46.1h0c-139.7,0-252.9-20.6-252.9-46.1h0C687.1,1401.8,800.3,1381.2,940,1381.2Z" transform="translate(0 88.3)"/></g></g></g></g><g id="layer9"><path id="rect4316" class="cls-18" d="M62.3,0C18.9,0,0,13.3,0,62.3V1227.7c0,49.1,18.9,62.4,62.3,62.4H1817.7c43.4,0,62.3-13.3,62.3-62.4V62.3c0-49-18.9-62.3-62.3-62.3H62.3Z" transform="translate(0 88.3)"/></g><g id="g4380"><path id="path4382" class="cls-19" d="M0,1117.8v109.9c0,49.1,18.9,62.4,62.3,62.4H1817.7c43.4,0,62.3-13.3,62.3-62.4V1117.8Z" transform="translate(0 88.3)"/></g><g id="g4491"><path id="path4493" class="cls-20" d="M0,1117.8v109.9c0,49.1,18.9,62.4,62.3,62.4H1817.7c43.4,0,62.3-13.3,62.3-62.4V1117.8Z" transform="translate(0 88.3)"/></g><g id="g4495"><path id="path4497" class="cls-21" d="M0,1115.5v109.9c0,49.1,19,62.3,62.3,62.3H1818.2c43.4,0,62.4-13.2,62.4-62.3V1115.5Z" transform="translate(0 88.3)"/></g><g id="layer11"><rect id="rect4398" class="cls-22" y="1206.1" width="653.1" height="2.42"/><rect id="rect4398-8" class="cls-23" x="653.1" y="1206.1" width="653.1" height="2.42"/></g><g id="g4376"><path id="path4378" d="M62.3,0C18.9,0,0,13.3,0,62.3V1117.8H1880V62.3c0-49-18.9-62.3-62.3-62.3H62.3Z" transform="translate(0 88.3)"/></g><g id="layer13"><g class="cls-24"><path id="path4516" class="cls-25" d="M1080.1-12.2l632.5,1414,333.3,21.2,6.3-1511.3Z" transform="translate(0 88.3)"/></g></g><g id="layer14"><rect id="rect4535" class="cls-17" x="79.1" y="162.7" width="1721.7" height="969.08"/></g></svg>