<svg id="Layer_1" data-name="Layer 1" xmlns="http://www.w3.org/2000/svg" viewBox="0 0 46.3 46.4"><defs><style>.cls-1{fill:#c9fa4b;}</style></defs><path class="cls-1" d="M10.7,26.7h0L5.3,29.1h0L.9,24.8H1l9.7,2Zm.6-1.3h0L.1,23h0l6.2-6.1h.1l5.4,7.8h0l-.5.6ZM13.6,9.7c0-.1-.1-.1,0-.1h0L23,.2h.1l4,4h0l-4.9,7.5h-.1a2.2,2.2,0,0,0-2.2.4h-.1L13.6,9.7ZM13,24,7.4,15.8h0l5-5h.1l6.6,2.8h0a2.7,2.7,0,0,0,.6,2.1c.1,0,.1.1,0,.1L14.5,24H13Zm1.8,5L25.3,44.2h0L23,46.6h-.1L9.9,33.7h0l2.8-4.5h1a2.2,2.2,0,0,0,1.1-.2Zm-3.2-.7h0L8.9,32.5H8.8L6.4,30.2h.1L11.4,28h0C11.5,28.1,11.6,28.2,11.6,28.3Zm4.8-1.9c0-.2-.1-.3-.1-.5h0l14.1-6h0l.3.2h0l-1.2,7.5h-.1a2.5,2.5,0,0,0-1.6,1.1h0L16.4,26.5Zm12.4,5.2h0L27,42.6h0l-.6.6h-.1l-10.4-15h0c0-.1.1-.2.1-.3h.1l11.5,2.3h0a2.4,2.4,0,0,0,1.2,1.4Zm8.6.6h0l-8.5,8.5h-.1l1.4-9.1h.1a2.8,2.8,0,0,0,.9-.7h.1ZM29.8,18h0v.5h-.1L15.8,24.6h-.1l5.2-8.1h.5a2.3,2.3,0,0,0,1.9-1h.1L29.8,18Zm15.4,6.5h0L38.7,31h0l-7.1-1.5h0a1.8,1.8,0,0,0-.8-1.3h0l1.3-7.6h0a1.7,1.7,0,0,0,1.4-.8h0Zm1.2-1.1h-.1L34.2,18.4h0l4.9-2.1h0l7.3,7.2ZM23.3,12.8h0l4.8-7.4h.1l4.2,4.2h0l-1.1,6.8h0a1.5,1.5,0,0,0-.7.3h-.1L23.8,14h-.1A2.1,2.1,0,0,0,23.3,12.8Zm9.4,3.8h0l.9-5.7h.1L37.9,15h0l-4.5,2h-.1A1,1,0,0,0,32.7,16.6Z" transform="translate(0 -0.2)"/></svg>